<svg xmlns="http://www.w3.org/2000/svg" viewBox="690 945 625 110" xmlns:c2pa="http://c2pa.org/manifest"><metadata><c2pa:manifest>AAAWgmp1bWIAAAAeanVtZGMycGEAEQAQgAAAqgA4m3EDYzJwYQAAABZcanVtYgAAAEdqdW1kYzJtYQARABCAAACqADibcQN1cm46YzJwYTphMDFiMzVlMy1kMzM0LTRkYTEtOTllOC0yZDVhOWJjMGRkMjIAAAADl2p1bWIAAAApanVtZGMyYXMAEQAQgAAAqgA4m3EDYzJwYS5hc3NlcnRpb25zAAAAALxqdW1iAAAARGp1bWRjYm9yABEAEIAAAKoAOJtxE2MycGEuaW5ncmVkaWVudC52MwAAAAAYYzJzaDHoXmECUaQk3ToDWrCkcmwAAABwY2JvcqNpZGM6Zm9ybWF0bWltYWdlL3N2Zyt4bWxqaW5zdGFuY2VJRHgseG1wOmlpZDplYWZkMGM4Yi05ZjBkLTRkYmQtYTUzMC1lNDk0ZjFiNWJlNzhscmVsYXRpb25zaGlwaHBhcmVudE9mAAAB4mp1bWIAAABBanVtZGNib3IAEQAQgAAAqgA4m3ETYzJwYS5hY3Rpb25zLnYyAAAAABhjMnNoGKN1B+RpNsKYlAYSDqG/lAAAAZljYm9yomdhY3Rpb25zgqJmYWN0aW9ua2MycGEub3BlbmVkanBhcmFtZXRlcnOha2luZ3JlZGllbnRzgaJjdXJseC1zZWxmI2p1bWJmPWMycGEuYXNzZXJ0aW9ucy9jMnBhLmluZ3JlZGllbnQudjNkaGFzaFgga0Lk1FIH0aY4WzD+Qox6XaaekOawFxR223kppznBu12kZmFjdGlvbngdY29tLmFudGhyb3BpYy5jbGF1ZGUucHJvdmlkZWRqcGFyYW1ldGVyc6F4H2NvbS5hbnRocm9waWMub3JpZ2luLWNvbmZpZGVuY2VndW5rbm93bmtkZXNjcmlwdGlvbnhmQ2xhdWRlIHByb3ZpZGVkIHRoaXMgZmlsZSBhdCB0aGUgcmVxdWVzdCBvZiBhIHVzZXIgYW5kIG1heSBoYXZlIGNyZWF0ZWQgb3IgbW9kaWZpZWQgdGhlIGZpbGUgY29udGVudHMubXNvZnR3YXJlQWdlbnShZG5hbWVmQ2xhdWRlcmFsbEFjdGlvbnNJbmNsdWRlZPUAAADIanVtYgAAAEBqdW1kY2JvcgARABCAAACqADibcRNjMnBhLmhhc2guZGF0YQAAAAAYYzJzaELntVajOKlvpnL4++nE8rsAAACAY2JvcqVjYWxnZnNoYTI1NmNwYWRNAAAAAAAAAAAAAAAAAGRoYXNoWCDSkGI0/Mng/+NjTgR9EF+FnqgHYfeQTdm8g29mbjfFj2RuYW1lbmp1bWJmIG1hbmlmZXN0amV4Y2x1c2lvbnOBomVzdGFydBiBZmxlbmd0aBkeBAAAAj5qdW1iAAAAJ2p1bWRjMmNsABEAEIAAAKoAOJtxA2MycGEuY2xhaW0udjIAAAACD2Nib3KlY2FsZ2ZzaGEyNTZpc2lnbmF0dXJleE1zZWxmI2p1bWJmPS9jMnBhL3VybjpjMnBhOmEwMWIzNWUzLWQzMzQtNGRhMS05OWU4LTJkNWE5YmMwZGQyMi9jMnBhLnNpZ25hdHVyZWppbnN0YW5jZUlEeCx4bXA6aWlkOjAwNGI1NWE1LWYwNjQtNDhlOS05MGFlLTA4ZmRiYmFkMTkxYXJjcmVhdGVkX2Fzc2VydGlvbnODomN1cmx4LXNlbGYjanVtYmY9YzJwYS5hc3NlcnRpb25zL2MycGEuaW5ncmVkaWVudC52M2RoYXNoWCBrQuTUUgfRpjhbMP5CjHpdpp6Q5rAXFHbbeSmnOcG7XaJjdXJseCpzZWxmI2p1bWJmPWMycGEuYXNzZXJ0aW9ucy9jMnBhLmFjdGlvbnMudjJkaGFzaFggD0aVwPt2EvsesXvmMXIJBLyI/0uXq4d4aIQ0M4rKp2miY3VybHgpc2VsZiNqdW1iZj1jMnBhLmFzc2VydGlvbnMvYzJwYS5oYXNoLmRhdGFkaGFzaFggjaCsLYM2IZoTfW/mEOr4BaGyhbDa/9ej9A1j8CGzsY90Y2xhaW1fZ2VuZXJhdG9yX2luZm+jZG5hbWVvQW50aHJvcGljIEZpbGVzZ3ZlcnNpb25lMS4wLjBrc3BlY1ZlcnNpb25lMi40LjAAABA4anVtYgAAAChqdW1kYzJjcwARABCAAACqADibcQNjMnBhLnNpZ25hdHVyZQAAABAIY2JvctKEWQISogEmGCFZAgowggIGMIIBjaADAgECAhRA5aAK7sI50L64g/oGQgU9Z1UTADAKBggqhkjOPQQDAzBJMRcwFQYDVQQKEw5BbnRocm9waWMsIFBCQzEuMCwGA1UEAxMlQW50aHJvcGljIENvbnRlbnQgQ3JlZGVudGlhbHMgUm9vdCBDQTAeFw0yNjA4MDcxODQzNTZaFw0yODA4MDYxOTQzNTZaMEQxFzAVBgNVBAoTDkFudGhyb3BpYywgUEJDMSkwJwYDVQQDEyBBbnRocm9waWMgQ2xhdWRlIENvbnRlbnQgU2lnbmluZzBZMBMGByqGSM49AgEGCCqGSM49AwEHA0IABJh6CmvLUBgFFNU0vUKlOVtE6djd17L5SuwX0LemFisBM3dkd/3cyjxFA3Qo5S46fX0/ihY0VZ7mfb9KF703t5OjWDBWMA4GA1UdDwEB/wQEAwIHgDAVBgNVHSUEDjAMBgorBgEEAYPoXgIBMAwGA1UdEwEB/wQCMAAwHwYDVR0jBBgwFoAUzlHiBIFOZFsj+OPEz5o+nMHXXMIwCgYIKoZIzj0EAwMDZwAwZAIwMXMdFJ4BetLLVY7ORuE9noqbbAZOZn/aArXyTwFAZfKrPzxF2vPoJNf1+UCdg1XGAjBwX1zd9WGqYkqmL5SFqw1QySjr1zJfpJM9+1rdDwSPLMOPOjKuiXjoU/pUUeG9RwmhY3BhZFkNngAAAAAAAAAAAAAAAAAAAAAAAAAAAAAAAAAAAAAAAAAAAAAAAAAAAAAAAAAAAAAAAAAAAAAAAAAAAAAAAAAAAAAAAAAAAAAAAAAAAAAAAAAAAAAAAAAAAAAAAAAAAAAAAAAAAAAAAAAAAAAAAAAAAAAAAAAAAAAAAAAAAAAAAAAAAAAAAAAAAAAAAAAAAAAAAAAAAAAAAAAAAAAAAAAAAAAAAAAAAAAAAAAAAAAAAAAAAAAAAAAAAAAAAAAAAAAAAAAAAAAAAAAAAAAAAAAAAAAAAAAAAAAAAAAAAAAAAAAAAAAAAAAAAAAAAAAAAAAAAAAAAAAAAAAAAAAAAAAAAAAAAAAAAAAAAAAAAAAAAAAAAAAAAAAAAAAAAAAAAAAAAAAAAAAAAAAAAAAAAAAAAAAAAAAAAAAAAAAAAAAAAAAAAAAAAAAAAAAAAAAAAAAAAAAAAAAAAAAAAAAAAAAAAAAAAAAAAAAAAAAAAAAAAAAAAAAAAAAAAAAAAAAAAAAAAAAAAAAAAAAAAAAAAAAAAAAAAAAAAAAAAAAAAAAAAAAAAAAAAAAAAAAAAAAAAAAAAAAAAAAAAAAAAAAAAAAAAAAAAAAAAAAAAAAAAAAAAAAAAAAAAAAAAAAAAAAAAAAAAAAAAAAAAAAAAAAAAAAAAAAAAAAAAAAAAAAAAAAAAAAAAAAAAAAAAAAAAAAAAAAAAAAAAAAAAAAAAAAAAAAAAAAAAAAAAAAAAAAAAAAAAAAAAAAAAAAAAAAAAAAAAAAAAAAAAAAAAAAAAAAAAAAAAAAAAAAAAAAAAAAAAAAAAAAAAAAAAAAAAAAAAAAAAAAAAAAAAAAAAAAAAAAAAAAAAAAAAAAAAAAAAAAAAAAAAAAAAAAAAAAAAAAAAAAAAAAAAAAAAAAAAAAAAAAAAAAAAAAAAAAAAAAAAAAAAAAAAAAAAAAAAAAAAAAAAAAAAAAAAAAAAAAAAAAAAAAAAAAAAAAAAAAAAAAAAAAAAAAAAAAAAAAAAAAAAAAAAAAAAAAAAAAAAAAAAAAAAAAAAAAAAAAAAAAAAAAAAAAAAAAAAAAAAAAAAAAAAAAAAAAAAAAAAAAAAAAAAAAAAAAAAAAAAAAAAAAAAAAAAAAAAAAAAAAAAAAAAAAAAAAAAAAAAAAAAAAAAAAAAAAAAAAAAAAAAAAAAAAAAAAAAAAAAAAAAAAAAAAAAAAAAAAAAAAAAAAAAAAAAAAAAAAAAAAAAAAAAAAAAAAAAAAAAAAAAAAAAAAAAAAAAAAAAAAAAAAAAAAAAAAAAAAAAAAAAAAAAAAAAAAAAAAAAAAAAAAAAAAAAAAAAAAAAAAAAAAAAAAAAAAAAAAAAAAAAAAAAAAAAAAAAAAAAAAAAAAAAAAAAAAAAAAAAAAAAAAAAAAAAAAAAAAAAAAAAAAAAAAAAAAAAAAAAAAAAAAAAAAAAAAAAAAAAAAAAAAAAAAAAAAAAAAAAAAAAAAAAAAAAAAAAAAAAAAAAAAAAAAAAAAAAAAAAAAAAAAAAAAAAAAAAAAAAAAAAAAAAAAAAAAAAAAAAAAAAAAAAAAAAAAAAAAAAAAAAAAAAAAAAAAAAAAAAAAAAAAAAAAAAAAAAAAAAAAAAAAAAAAAAAAAAAAAAAAAAAAAAAAAAAAAAAAAAAAAAAAAAAAAAAAAAAAAAAAAAAAAAAAAAAAAAAAAAAAAAAAAAAAAAAAAAAAAAAAAAAAAAAAAAAAAAAAAAAAAAAAAAAAAAAAAAAAAAAAAAAAAAAAAAAAAAAAAAAAAAAAAAAAAAAAAAAAAAAAAAAAAAAAAAAAAAAAAAAAAAAAAAAAAAAAAAAAAAAAAAAAAAAAAAAAAAAAAAAAAAAAAAAAAAAAAAAAAAAAAAAAAAAAAAAAAAAAAAAAAAAAAAAAAAAAAAAAAAAAAAAAAAAAAAAAAAAAAAAAAAAAAAAAAAAAAAAAAAAAAAAAAAAAAAAAAAAAAAAAAAAAAAAAAAAAAAAAAAAAAAAAAAAAAAAAAAAAAAAAAAAAAAAAAAAAAAAAAAAAAAAAAAAAAAAAAAAAAAAAAAAAAAAAAAAAAAAAAAAAAAAAAAAAAAAAAAAAAAAAAAAAAAAAAAAAAAAAAAAAAAAAAAAAAAAAAAAAAAAAAAAAAAAAAAAAAAAAAAAAAAAAAAAAAAAAAAAAAAAAAAAAAAAAAAAAAAAAAAAAAAAAAAAAAAAAAAAAAAAAAAAAAAAAAAAAAAAAAAAAAAAAAAAAAAAAAAAAAAAAAAAAAAAAAAAAAAAAAAAAAAAAAAAAAAAAAAAAAAAAAAAAAAAAAAAAAAAAAAAAAAAAAAAAAAAAAAAAAAAAAAAAAAAAAAAAAAAAAAAAAAAAAAAAAAAAAAAAAAAAAAAAAAAAAAAAAAAAAAAAAAAAAAAAAAAAAAAAAAAAAAAAAAAAAAAAAAAAAAAAAAAAAAAAAAAAAAAAAAAAAAAAAAAAAAAAAAAAAAAAAAAAAAAAAAAAAAAAAAAAAAAAAAAAAAAAAAAAAAAAAAAAAAAAAAAAAAAAAAAAAAAAAAAAAAAAAAAAAAAAAAAAAAAAAAAAAAAAAAAAAAAAAAAAAAAAAAAAAAAAAAAAAAAAAAAAAAAAAAAAAAAAAAAAAAAAAAAAAAAAAAAAAAAAAAAAAAAAAAAAAAAAAAAAAAAAAAAAAAAAAAAAAAAAAAAAAAAAAAAAAAAAAAAAAAAAAAAAAAAAAAAAAAAAAAAAAAAAAAAAAAAAAAAAAAAAAAAAAAAAAAAAAAAAAAAAAAAAAAAAAAAAAAAAAAAAAAAAAAAAAAAAAAAAAAAAAAAAAAAAAAAAAAAAAAAAAAAAAAAAAAAAAAAAAAAAAAAAAAAAAAAAAAAAAAAAAAAAAAAAAAAAAAAAAAAAAAAAAAAAAAAAAAAAAAAAAAAAAAAAAAAAAAAAAAAAAAAAAAAAAAAAAAAAAAAAAAAAAAAAAAAAAAAAAAAAAAAAAAAAAAAAAAAAAAAAAAAAAAAAAAAAAAAAAAAAAAAAAAAAAAAAAAAAAAAAAAAAAAAAAAAAAAAAAAAAAAAAAAAAAAAAAAAAAAAAAAAAAAAAAAAAAAAAAAAAAAAAAAAAAAAAAAAAAAAAAAAAAAAAAAAAAAAAAAAAAAAAAAAAAAAAAAAAAAAAAAAAAAAAAAAAAAAAAAAAAAAAAAAAAAAAAAAAAAAAAAAAAAAAAAAAAAAAAAAAAAAAAAAAAAAAAAAAAAAAAAAAAAAAAAAAAAAAAAAAAAAAAAAAAAAAAAAAAAAAAAAAAAAAAAAAAAAAAAAAAAAAAAAAAAAAAAAAAAAAAAAAAAAAAAAAAAAAAAAAAAAAAAAAAAAAAAAAAAAAAAAAAAAAAAAAAAAAAAAAAAAAAAAAAAAAAAAAAAAAAAAAAAAAAAAAAAAAAAAAAAAAAAAAAAAAAAAAAAAAAAAAAAAAAAAAAAAAAAAAAAAAAAAAAAAAAAAAAAAAAAAAAAAAAAAAAAAAAAAAAAAAAAAAAAAAAAAAAAAAAAAAAAAAAAAAAAAAAAAAAAAAAAAAAAAAAAAAAAAAAAAAAAAAAAAAAAAAAAAAAAAAAAAAAAAAAAAAAAAAAAAAAAAAAAAAAAAAAAAAAAAAAAAAAAAAAAAAAAAAAAAAAAAAAAAAAAAAAAAAAAAAAAAAAAAAAAAAAAAAAAAAAAAAAAAAAAAAAAAAAAAAAAAAAAAAAAAAAAAAAAAAAAAAAAAAAAAAAAAAAAAAAAAAAAAAAAAAAAAAAAAAAAAAAAAAAAAAAAAAAAAAAAAAAAAAAAAAAAAAAAAAAAAAAAAAAAAAAAAAAAAAAAAAAAAAAAAAAAAAAAAAAAAAAAAAAAAAAAAAAAAAAAAAAAAAAAAAAAAAAAAAAAAAAAAAAAAAAAAAAAAAAAAAAAAAAAAAAAAAAAAAAAAAAAAAAAAAAAAAAAAAAAAAAAAAAAAAAAAAAAAAAAAAAAAAAAAAAAAAAAAAAAAAAAAAAAAAAAAAAAAAAAAAAAAAAAAAAAAAAAAAAAAAAAAAAAAAAAAAAAAAAAAAAAAAAAAAAAAAAAAAAAAAAAAAAAAAAAAAAAAAAAAAAAAAAAAAAAAAAAAAAAAAAAAAAAAAAAAAAAAAAAAAAAAAAAAAAAAAAAAAAAAAAAAAAAAAAAAAAAAAAAAAAAAAAAAAAAAAAAAAAAAAAAAAAAAAAAAAAAAAAAAAAAAAAAAAAAAAAAAAAAAAAAAAAAAAAAAAAAAAAAAAAAAAAAAAAAAAAAAAAAAAAAAAAAAAAAAAAAAAAAAAAAAAAAAAAAAAAAAAAAAAAAAAAAAAAAAAAAAAAAAAAAAAAAAAAAAAAAAAAAAAAAAAAAAAAAAAAAAAAAAAAAAAAAAAAAAAAAAAAAAAAAAAAAAAAAAAAAAAAAAAAAAAAAAAAAAAAAAAAAAAAAAAAAAAAAAAAAAAAAAAAAAAAAAAAAAAAAAAAAAAAAAAAAAAAAAAAAAAAAAAAAAAAAAAAAAAAAAAAAAAAAAAAAAAAAAAAAAAAAAAAAAAAAAAAAAAAAAAAAAAAAAAAAAAAAAAAAAAAAAAAAAAAAAAAAAAAAAAAAAAAAAAAAAAAAAAAAAAAAAAAAAAAAAAAAAAAAAAAAAAAAAAAAAAAAAAAAAAAAAAAAAAAAAAAAAAAAAAAAPZYQOi7uhexpAwEoW8i4usPROWwYPv4919yXxSIkjrXQSASEVxmedUqQeUyGaUsYmlYBOHTlJJw5wlAiVT4zgHl98s=</c2pa:manifest></metadata><g fill="#1A1A1A"><g>
    <path d="M722.48,1033.96c-4.78,0-8.97-.46-12.56-1.38-3.59-.92-6.53-2.32-8.81-4.19-2.28-1.88-3.87-4.23-4.77-7.06-.9-2.83-1.06-6.09-.49-9.76l14.88-4.52c-.57,3.31-.33,6.07.7,8.27,1.03,2.21,2.83,3.83,5.41,4.86,2.57,1.03,5.59,1.54,9.05,1.54s6.19-.4,8.65-1.21c2.45-.81,4.42-1.89,5.89-3.25,1.47-1.36,2.38-2.85,2.73-4.47.41-1.91,0-3.46-1.21-4.63-1.22-1.18-3.01-2.17-5.37-2.98-2.36-.81-5.08-1.58-8.16-2.32-3.43-.81-6.78-1.73-10.05-2.76-3.27-1.03-6.15-2.35-8.63-3.97-2.48-1.62-4.28-3.71-5.38-6.29-1.1-2.57-1.23-5.81-.39-9.71.97-4.49,2.92-8.37,5.87-11.64,2.95-3.27,6.79-5.83,11.53-7.67,4.73-1.84,10.16-2.76,16.26-2.76s11.26.9,15.25,2.7c3.99,1.8,6.84,4.34,8.57,7.61,1.72,3.27,2.21,7.16,1.46,11.64l-15.2,3.97c.49-2.28.55-4.27.18-5.96-.37-1.69-1.1-3.11-2.17-4.25-1.08-1.14-2.53-2-4.35-2.59-1.82-.59-3.99-.88-6.49-.88-2.87,0-5.43.37-7.69,1.1-2.26.74-4.05,1.73-5.39,2.98-1.34,1.25-2.19,2.72-2.55,4.41-.43,1.99.05,3.62,1.43,4.91,1.38,1.29,3.36,2.34,5.94,3.15,2.58.81,5.45,1.58,8.6,2.32,3.02.66,6.06,1.49,9.12,2.48,3.06.99,5.83,2.28,8.33,3.86,2.49,1.58,4.31,3.72,5.46,6.4,1.15,2.69,1.29,6.05.42,10.1-.95,4.41-2.96,8.27-6.03,11.59-3.07,3.31-7.13,5.87-12.19,7.67-5.06,1.8-11.01,2.7-17.85,2.7Z"></path>
    <path d="M761.85,1050.96l10.13-47,6.35-29.46h13.13l-3.36,16.11,1.96.11c1.5-3.9,3.37-7.17,5.59-9.82,2.23-2.65,4.81-4.64,7.74-5.96,2.93-1.32,6.13-1.99,9.59-1.99,5.15,0,9.29,1.27,12.42,3.81,3.13,2.54,5.18,6.11,6.14,10.7.96,4.6.76,10.02-.58,16.27-1.25,5.81-3.25,10.98-5.99,15.5-2.74,4.52-6.14,8.11-10.21,10.76-4.07,2.65-8.71,3.97-13.93,3.97-3.68,0-6.63-.7-8.87-2.1-2.24-1.4-3.91-3.36-5.02-5.9-1.11-2.54-1.83-5.57-2.18-9.1h-2.1c.01,1.99-.02,4.01-.09,6.07-.08,2.06-.21,4.07-.41,6.01-.2,1.95-.5,3.84-.89,5.68l-3.52,16.33h-15.89ZM798.03,1021.28c2.65,0,5.05-.73,7.21-2.21,2.16-1.47,4.02-3.53,5.58-6.18,1.56-2.65,2.71-5.66,3.44-9.05.79-3.68.95-6.82.49-9.43-.47-2.61-1.5-4.65-3.09-6.12-1.6-1.47-3.72-2.21-6.37-2.21-2.36,0-4.49.52-6.4,1.54-1.92,1.03-3.62,2.39-5.13,4.08-1.51,1.69-2.73,3.51-3.66,5.46-.94,1.95-1.59,3.81-1.97,5.57l-.45,2.1c-.3,1.4-.43,2.85-.39,4.36.04,1.51.31,2.98.81,4.41.5,1.43,1.18,2.72,2.04,3.86.86,1.14,1.95,2.06,3.27,2.76,1.32.7,2.86,1.05,4.63,1.05Z"></path>
    <path d="M836.24,1032.42l12.48-57.93h15.89l-12.48,57.93h-15.89ZM858.65,965.78c-3.09,0-5.32-.64-6.7-1.93-1.38-1.29-1.8-3.18-1.26-5.68.55-2.57,1.8-4.52,3.74-5.85,1.94-1.32,4.46-1.99,7.54-1.99s5.43.66,6.8,1.99c1.37,1.32,1.78,3.27,1.22,5.85-.52,2.43-1.75,4.3-3.7,5.63s-4.49,1.99-7.66,1.99Z"></path>
    <path d="M866.8,1032.42l7.56-35.09,4.92-22.84h13.02l-3.84,17.32h2.21c1.86-4.19,3.97-7.69,6.34-10.48,2.37-2.79,5.04-4.89,8.03-6.29,2.99-1.4,6.32-2.1,10-2.1,6.69,0,11.28,2.35,13.76,7.06,2.48,4.71,2.63,12.1.46,22.18l-6.51,30.23h-16l6.13-28.47c1.33-6.18,1.4-10.68.21-13.52-1.19-2.83-3.52-4.25-6.97-4.25-2.94,0-5.61.92-7.99,2.76-2.38,1.84-4.39,4.25-6.02,7.23-1.63,2.98-2.89,6.31-3.75,9.99l-5.66,26.26h-15.89Z"></path>
    <path d="M1013.33,1032.42l15.69-72.82h30.23c4.49,0,8.41.39,11.78,1.16,3.36.77,6.15,1.93,8.35,3.48,2.21,1.54,3.72,3.55,4.55,6.01.83,2.47.88,5.39.15,8.77-.62,2.87-1.76,5.37-3.44,7.5-1.67,2.13-3.92,3.86-6.75,5.19-2.82,1.32-6.35,2.25-10.58,2.76l-.36,1.65c6.88.52,11.63,2.26,14.26,5.24,2.63,2.98,3.41,6.97,2.33,11.97-.9,4.19-2.75,7.71-5.53,10.54-2.78,2.83-6.49,4.97-11.14,6.4-4.65,1.43-10.17,2.15-16.57,2.15h-32.99ZM1031.2,1019.62h17.65c4.71,0,8.36-.72,10.95-2.15,2.59-1.43,4.21-3.66,4.86-6.67.74-3.46-.13-6.05-2.63-7.78-2.5-1.73-6.65-2.59-12.46-2.59h-14.23l-4.14,19.2ZM1037.48,990.49h11.92c5.74,0,10.12-.79,13.14-2.37,3.03-1.58,4.87-3.92,5.54-7.01.67-3.09-.06-5.35-2.18-6.79-2.12-1.43-5.68-2.15-10.68-2.15h-13.79l-3.95,18.32Z"></path>
    <path d="M1087.92,1032.42l12.48-57.93h15.89l-12.48,57.93h-15.89ZM1110.33,965.78c-3.09,0-5.32-.64-6.7-1.93-1.38-1.29-1.8-3.18-1.26-5.68.55-2.57,1.8-4.52,3.74-5.85,1.94-1.32,4.46-1.99,7.54-1.99s5.43.66,6.8,1.99c1.37,1.32,1.78,3.27,1.22,5.85-.52,2.43-1.75,4.3-3.7,5.63s-4.49,1.99-7.66,1.99Z"></path>
    <path d="M1118.48,1032.42l17-78.89h15.67l-9.44,43.8c2.61-1.54,5.16-3.22,7.65-5.02,2.48-1.8,4.8-3.7,6.96-5.68,2.16-1.99,4.14-4.01,5.94-6.07,1.8-2.06,3.4-4.08,4.78-6.07h18.21c-1.71,2.8-3.77,5.61-6.18,8.44-2.41,2.83-5.11,5.44-8.09,7.83-2.98,2.39-6.27,4.43-9.87,6.12-3.6,1.69-7.42,2.83-11.44,3.42l-.4,1.88c5.12-.88,9.18-.81,12.2.22,3.01,1.03,5.33,2.67,6.94,4.91,1.61,2.24,2.73,4.82,3.36,7.72.62,2.91,1.13,5.83,1.53,8.77l.68,8.61h-17.32l-.27-5.41c-.25-3.6-.71-6.77-1.38-9.49-.67-2.72-1.85-4.84-3.54-6.34-1.7-1.51-4.31-2.26-7.84-2.26h-4.41l-5.06,23.5h-15.67Z"></path>
    <path d="M1209.06,1033.96c-4.78,0-8.89-.66-12.32-1.99-3.43-1.32-6.16-3.24-8.2-5.74-2.04-2.5-3.34-5.59-3.91-9.27-.57-3.68-.35-7.83.64-12.47.98-4.56,2.53-8.77,4.65-12.63,2.12-3.86,4.73-7.21,7.85-10.04,3.11-2.83,6.63-5.02,10.57-6.57,3.94-1.54,8.19-2.32,12.75-2.32s8.19.72,11.34,2.15c3.15,1.43,5.57,3.59,7.27,6.45,1.7,2.87,2.63,6.38,2.81,10.54.17,4.16-.47,8.92-1.92,14.29l-45.56.44,1.88-8.72,36.37-.33-6.58,4.41c1.35-3.9,1.79-7.1,1.29-9.6-.49-2.5-1.58-4.34-3.28-5.52-1.7-1.18-3.72-1.77-6.07-1.77-2.8,0-5.42.74-7.87,2.21-2.45,1.47-4.57,3.62-6.36,6.46-1.79,2.83-3.11,6.23-3.96,10.21-1.35,6.25-.96,10.85,1.17,13.79,2.12,2.94,5.43,4.41,9.92,4.41,2.06,0,3.87-.28,5.42-.83,1.55-.55,2.88-1.27,3.99-2.15,1.11-.88,2.06-1.88,2.85-2.98.79-1.1,1.49-2.21,2.09-3.31l13.15,2.98c-1.25,2.72-2.75,5.17-4.5,7.34-1.76,2.17-3.87,4.05-6.34,5.63-2.48,1.58-5.29,2.8-8.45,3.64-3.16.84-6.73,1.27-10.7,1.27Z"></path>
    <path d="M1270.08,1033.96c-3.9,0-7.35-.37-10.35-1.1-3.01-.73-5.5-1.8-7.48-3.2-1.98-1.4-3.46-3.07-4.44-5.02-.98-1.95-1.42-4.14-1.34-6.57l13.21-4.96c-.06,1.62.43,3.13,1.45,4.52,1.02,1.4,2.56,2.52,4.63,3.37,2.06.85,4.67,1.27,7.84,1.27,3.38,0,6.1-.5,8.16-1.49,2.05-.99,3.28-2.41,3.67-4.25.3-1.4.02-2.5-.83-3.31-.86-.81-2.21-1.51-4.07-2.1-1.86-.59-4.13-1.14-6.82-1.65-2.58-.66-5.21-1.36-7.88-2.1-2.67-.73-5.06-1.77-7.17-3.09-2.11-1.32-3.68-3.07-4.72-5.24-1.04-2.17-1.2-4.95-.47-8.33.76-3.53,2.38-6.62,4.87-9.27,2.48-2.65,5.72-4.73,9.73-6.23,4-1.51,8.65-2.26,13.95-2.26,4.78,0,8.83.64,12.16,1.93,3.33,1.29,5.89,3.13,7.69,5.52,1.8,2.39,2.75,5.24,2.85,8.55l-13.84,4.3c.09-1.77-.3-3.31-1.15-4.63-.86-1.32-2.15-2.32-3.88-2.98-1.73-.66-3.85-.99-6.35-.99-3.16,0-5.72.52-7.67,1.54-1.95,1.03-3.11,2.39-3.47,4.08-.3,1.4.02,2.54.97,3.42.95.88,2.39,1.6,4.34,2.15,1.94.55,4.25,1.12,6.91,1.71,2.81.59,5.54,1.27,8.17,2.04,2.63.77,4.93,1.78,6.9,3.03,1.97,1.25,3.4,2.91,4.28,4.97.88,2.06.97,4.71.27,7.94-.82,3.83-2.56,7.12-5.22,9.88-2.66,2.76-6.09,4.87-10.3,6.34-4.22,1.47-9.08,2.21-14.6,2.21Z"></path>
  </g></g><path fill="#1A1A1A" d="M980.89,950.94l-32.87,44.58c-.73.99-.02,2.38,1.2,2.38h23.65c.95,0,1.66.88,1.46,1.81l-6.67,30.88c-.34,1.57,1.7,2.5,2.66,1.21l33.22-44.61c.73-.99.03-2.39-1.2-2.39h-23.53c-.94,0-1.65-.86-1.47-1.79l6.2-30.9c.31-1.57-1.72-2.47-2.67-1.18Z"></path></svg>